<?xml version="1.0" standalone="no"?>
<!DOCTYPE svg PUBLIC "-//W3C//DTD SVG 20010904//EN"
 "http://www.w3.org/TR/2001/REC-SVG-20010904/DTD/svg10.dtd">
<svg version="1.0" xmlns="http://www.w3.org/2000/svg"
 width="512.000000pt" height="512.000000pt" viewBox="0 0 512.000000 512.000000"
 preserveAspectRatio="xMidYMid meet">
<metadata>
Created by potrace 1.14, written by Peter Selinger 2001-2017
</metadata>
<g transform="translate(0.000000,512.000000) scale(0.100000,-0.100000)"
fill="#000000" stroke="none">
<path d="M1690 5105 c-552 -104 -926 -658 -825 -1220 8 -44 15 -82 15 -85 0
-3 -51 -5 -113 -6 -140 -1 -188 -8 -307 -47 -160 -52 -248 -128 -325 -277 -54
-107 -101 -276 -120 -435 -10 -86 -13 -427 -4 -500 5 -38 11 -92 14 -120 4
-27 8 -57 10 -65 2 -8 7 -31 10 -50 3 -19 8 -42 10 -50 2 -8 7 -29 10 -46 12
-77 119 -468 195 -719 12 -38 27 -92 35 -120 7 -27 23 -84 35 -125 12 -41 23
-82 25 -90 38 -153 85 -353 90 -380 3 -19 10 -54 16 -78 5 -24 12 -62 15 -85
3 -23 7 -51 9 -62 2 -11 6 -40 9 -65 4 -25 9 -56 11 -70 2 -14 7 -59 10 -100
15 -209 28 -246 104 -288 l38 -22 1902 0 c1890 0 1902 0 1941 20 58 30 91 85
96 162 25 386 94 712 304 1433 100 342 162 592 192 770 20 121 23 173 22 385
0 255 -9 337 -55 509 -61 227 -179 386 -333 448 -111 45 -207 64 -346 70 -74
3 -136 7 -138 8 -2 2 2 21 8 44 17 65 26 218 17 315 -39 465 -382 854 -829
941 -108 21 -329 14 -432 -14 -132 -37 -239 -98 -319 -185 -34 -37 -107 -145
-107 -159 0 -3 -5 -18 -11 -34 l-11 -28 -13 38 c-36 104 -137 223 -245 288
-55 34 -184 81 -255 95 -64 11 -292 11 -355 -1z"/>
</g>
</svg>
